<svg width="22" height="24" viewBox="0 0 22 24" fill="none" xmlns="http://www.w3.org/2000/svg">
<path d="M17.8065 12.7521C17.7779 9.71573 20.3858 8.25685 20.5033 8.18515C19.036 6.11956 16.7548 5.83826 15.9408 5.80517C14.0006 5.61488 12.1521 6.90553 11.1663 6.90553C10.1804 6.90553 8.66149 5.83275 7.05087 5.86308C4.93298 5.89342 2.98131 7.04618 1.88941 8.87184C-0.308724 12.5397 1.3277 17.9809 3.47138 20.962C4.52029 22.4181 5.76695 24.059 7.4091 23.9984C8.99107 23.9377 9.58717 23.0138 11.4959 23.0138C13.4045 23.0138 13.9433 23.9984 15.6113 23.968C17.3107 23.9349 18.3883 22.4788 19.4286 21.0172C20.6294 19.3267 21.1252 17.6885 21.1539 17.603C21.1166 17.5892 17.8409 16.3813 17.8065 12.7521Z" fill="white"/>
<path d="M14.6684 3.83334C15.5396 2.81847 16.1271 1.40648 15.9666 0C14.7114 0.0496404 13.1925 0.805277 12.2926 1.82015C11.4873 2.71643 10.7794 4.15325 10.9714 5.53215C12.3671 5.63694 13.7972 4.84545 14.6684 3.83334Z" fill="white"/>
</svg>
