<svg width="27" height="27" viewBox="0 0 27 27" fill="none" xmlns="http://www.w3.org/2000/svg">
<g clip-path="url(#clip0_197_456)">
<g filter="url(#filter0_d_197_456)">
<path d="M4.11918 12.4882H6.17551C6.7363 12.4882 7.27413 12.7109 7.67067 13.1075C8.06721 13.504 8.28998 14.0419 8.28998 14.6026V15.6599C8.28998 16.2207 8.51276 16.7585 8.9093 17.155C9.30584 17.5516 9.84366 17.7744 10.4045 17.7744C10.9653 17.7744 11.5031 17.9971 11.8996 18.3937C12.2962 18.7902 12.5189 19.328 12.5189 19.8888V23.0024M9.34722 5.01879V6.67337C9.34722 7.37436 9.62569 8.04664 10.1214 8.54232C10.617 9.03799 11.2893 9.31646 11.9903 9.31646H12.5189C13.0797 9.31646 13.6176 9.53923 14.0141 9.93577C14.4106 10.3323 14.6334 10.8701 14.6334 11.4309C14.6334 11.9917 14.8562 12.5296 15.2527 12.9261C15.6493 13.3226 16.1871 13.5454 16.7479 13.5454C17.3087 13.5454 17.8465 13.3226 18.243 12.9261C18.6396 12.5296 18.8624 11.9917 18.8624 11.4309C18.8624 10.8701 19.0851 10.3323 19.4817 9.93577C19.8782 9.53923 20.416 9.31646 20.9768 9.31646H22.1017M16.7479 22.5192V19.8888C16.7479 19.328 16.9707 18.7902 17.3672 18.3937C17.7637 17.9971 18.3016 17.7744 18.8624 17.7744H22.1017M23.0913 13.5454C23.0913 14.795 22.8452 16.0323 22.367 17.1867C21.8888 18.3411 21.1879 19.3901 20.3044 20.2736C19.4208 21.1572 18.3719 21.8581 17.2175 22.3362C16.063 22.8144 14.8257 23.0605 13.5762 23.0605C12.3266 23.0605 11.0893 22.8144 9.93489 22.3362C8.78046 21.8581 7.73152 21.1572 6.84795 20.2736C5.96439 19.3901 5.26351 18.3411 4.78533 17.1867C4.30715 16.0323 4.06104 14.795 4.06104 13.5454C4.06104 11.0218 5.06352 8.60163 6.84795 6.81719C8.63239 5.03276 11.0526 4.03027 13.5762 4.03027C16.0997 4.03027 18.52 5.03276 20.3044 6.81719C22.0888 8.60163 23.0913 11.0218 23.0913 13.5454Z" stroke="#FFDB0A" stroke-width="1.44993" stroke-linecap="round" stroke-linejoin="round" shape-rendering="crispEdges"/>
</g>
</g>
<defs>
<filter id="filter0_d_197_456" x="3.33594" y="3.30518" width="20.4805" height="23.0075" filterUnits="userSpaceOnUse" color-interpolation-filters="sRGB">
<feFlood flood-opacity="0" result="BackgroundImageFix"/>
<feColorMatrix in="SourceAlpha" type="matrix" values="0 0 0 0 0 0 0 0 0 0 0 0 0 0 0 0 0 0 127 0" result="hardAlpha"/>
<feOffset dy="2.52701"/>
<feComposite in2="hardAlpha" operator="out"/>
<feColorMatrix type="matrix" values="0 0 0 0 0 0 0 0 0 0 0 0 0 0 0 0 0 0 0.15 0"/>
<feBlend mode="normal" in2="BackgroundImageFix" result="effect1_dropShadow_197_456"/>
<feBlend mode="normal" in="SourceGraphic" in2="effect1_dropShadow_197_456" result="shape"/>
</filter>
<clipPath id="clip0_197_456">
<rect width="25.3737" height="25.3737" fill="white" transform="translate(0.889648 0.858887)"/>
</clipPath>
</defs>
</svg>
