<svg width="24" height="24" viewBox="0 0 24 24" fill="none" xmlns="http://www.w3.org/2000/svg">
<path d="M24 12.2592C24 11.2715 23.9184 10.5508 23.7418 9.80333H12.2593V14.2613H18.9993C18.8634 15.3692 18.1296 17.0377 16.4989 18.1588L16.4761 18.308L20.1067 21.0707L20.3582 21.0953C22.6682 18.9997 24 15.9164 24 12.2592Z" fill="#4285F4"/>
<path d="M12.2661 24C15.5703 24 18.3442 22.9338 20.3704 21.0948L16.5086 18.1629C15.4751 18.8692 14.0881 19.3623 12.2661 19.3623C9.02978 19.3623 6.28303 17.2701 5.30389 14.3782L5.16037 14.3902L1.38274 17.2554L1.33333 17.39C3.3458 21.308 7.47956 24 12.2661 24Z" fill="#34A853"/>
<path d="M5.2963 14.3818C5.03694 13.636 4.88685 12.8368 4.88685 12.011C4.88685 11.1852 5.03694 10.3861 5.28265 9.64027L5.27578 9.48143L1.43604 6.57186L1.31041 6.63017C0.477769 8.25509 0 10.0798 0 12.011C0 13.9423 0.477769 15.7669 1.31041 17.3918L5.2963 14.3818Z" fill="#FBBC05"/>
<path d="M12.2618 4.63762C14.5589 4.63762 16.1084 5.61046 16.9919 6.42343L20.4444 3.11842C18.3241 1.18607 15.5647 0 12.2618 0C7.47715 0 3.34501 2.69195 1.33333 6.60994L5.28875 9.62179C6.28109 6.72992 9.02677 4.63762 12.2618 4.63762Z" fill="#EB4335"/>
</svg>
