<svg width="12" height="21" viewBox="0 0 12 21" fill="none" xmlns="http://www.w3.org/2000/svg">
<path fill-rule="evenodd" clip-rule="evenodd" d="M0.585615 19.6446C0.210646 19.2691 0 18.7599 0 18.2289C0 17.6979 0.210646 17.1886 0.585615 16.8131L7.17208 10.2189L0.585615 3.62462C0.221273 3.24695 0.0196688 2.74111 0.024226 2.21606C0.0287832 1.69101 0.239137 1.18876 0.609979 0.817477C0.980822 0.446197 1.48248 0.235595 2.00691 0.231033C2.53134 0.22647 3.03658 0.428312 3.41382 0.793084L11.4144 8.8031C11.7894 9.17862 12 9.68787 12 10.2189C12 10.7499 11.7894 11.2591 11.4144 11.6346L3.41382 19.6446C3.03873 20.0201 2.53008 20.231 1.99972 20.231C1.46935 20.231 0.960697 20.0201 0.585615 19.6446Z" fill="white"/>
</svg>
