<svg width="19" height="31" viewBox="0 0 19 31" fill="none" xmlns="http://www.w3.org/2000/svg">
<path fill-rule="evenodd" clip-rule="evenodd" d="M1.24359 29.856C0.671798 29.284 0.350586 28.5084 0.350586 27.6996C0.350586 26.8909 0.671798 26.1152 1.24359 25.5433L11.2872 15.4996L1.24359 5.45598C0.688003 4.88074 0.380579 4.11031 0.387528 3.31061C0.394477 2.51091 0.715243 1.74593 1.28074 1.18043C1.84623 0.61494 2.61121 0.294174 3.41091 0.287225C4.21061 0.280275 4.98105 0.5877 5.55628 1.14328L17.7563 13.3433C18.3281 13.9152 18.6493 14.6909 18.6493 15.4996C18.6493 16.3084 18.3281 17.084 17.7563 17.656L5.55628 29.856C4.98432 30.4278 4.20869 30.749 3.39993 30.749C2.59118 30.749 1.81554 30.4278 1.24359 29.856Z" fill="#FFDB0A"/>
</svg>
