<svg width="12" height="21" viewBox="0 0 12 21" fill="none" xmlns="http://www.w3.org/2000/svg">
<path fill-rule="evenodd" clip-rule="evenodd" d="M11.4144 0.817263C11.7894 1.19279 12 1.70204 12 2.23303C12 2.76402 11.7894 3.27328 11.4144 3.6488L4.82792 10.243L11.4144 16.8373C11.7787 17.215 11.9803 17.7208 11.9758 18.2459C11.9712 18.7709 11.7609 19.2732 11.39 19.6444C11.0192 20.0157 10.5175 20.2263 9.99309 20.2309C9.46865 20.2354 8.96342 20.0336 8.58618 19.6688L0.585615 11.6588C0.210646 11.2833 0 10.774 0 10.243C0 9.71205 0.210646 9.2028 0.585615 8.82728L8.58618 0.817263C8.96127 0.441852 9.46992 0.230957 10.0003 0.230957C10.5307 0.230957 11.0393 0.441852 11.4144 0.817263Z" fill="white"/>
</svg>
