<svg width="19" height="31" viewBox="0 0 19 31" fill="none" xmlns="http://www.w3.org/2000/svg">
<path fill-rule="evenodd" clip-rule="evenodd" d="M17.7553 1.14349C18.3271 1.71545 18.6483 2.49109 18.6483 3.29984C18.6483 4.10859 18.3271 4.88423 17.7553 5.45619L7.71166 15.4998L17.7553 25.5435C18.3109 26.1187 18.6183 26.8892 18.6114 27.6889C18.6044 28.4886 18.2836 29.2535 17.7182 29.819C17.1527 30.3845 16.3877 30.7053 15.588 30.7122C14.7883 30.7192 14.0178 30.4118 13.4426 29.8562L1.24261 17.6562C0.670822 17.0842 0.349609 16.3086 0.349609 15.4998C0.349609 14.6911 0.670822 13.9154 1.24261 13.3435L13.4426 1.14349C14.0146 0.571701 14.7902 0.250488 15.599 0.250488C16.4077 0.250488 17.1833 0.571701 17.7553 1.14349Z" fill="#FFDB0A"/>
</svg>
