<svg width="18" height="18" viewBox="0 0 18 18" fill="none" xmlns="http://www.w3.org/2000/svg">
<mask id="path-1-outside-1_137_2911" maskUnits="userSpaceOnUse" x="1.36914" y="1.46924" width="15" height="15" fill="black">
<rect fill="white" x="1.36914" y="1.46924" width="15" height="15"/>
<path fill-rule="evenodd" clip-rule="evenodd" d="M9.99586 3.28258C9.46065 2.19813 7.91425 2.19812 7.37904 3.28258L6.55692 4.94838C6.34439 5.37902 5.93356 5.6775 5.45833 5.74656L3.62 6.01368C2.69787 6.14768 2.20255 7.05158 2.41993 7.84554C2.2919 8.32308 2.40006 8.86534 2.81136 9.26627L4.14158 10.5629C4.33509 10.7515 4.4694 10.9869 4.53539 11.2411L4.24719 12.9214C4.20964 13.1404 4.22119 13.3498 4.27172 13.5423L4.24719 13.6853C4.04275 14.8772 5.29381 15.7862 6.36423 15.2234L8.00848 14.359C8.43355 14.1355 8.94135 14.1355 9.36642 14.359L11.0107 15.2234C12.0811 15.7862 13.3321 14.8772 13.1277 13.6853L13.1032 13.5423C13.1537 13.3498 13.1653 13.1404 13.1277 12.9214L12.8395 11.2411C12.9055 10.9869 13.0398 10.7515 13.2333 10.5629L14.5635 9.26627C14.9748 8.86534 15.083 8.32308 14.955 7.84554C15.1723 7.05158 14.677 6.14768 13.7549 6.01368L11.9166 5.74656C11.4413 5.6775 11.0305 5.37902 10.818 4.94838L9.99586 3.28258Z"/>
</mask>
<path fill-rule="evenodd" clip-rule="evenodd" d="M9.99586 3.28258C9.46065 2.19813 7.91425 2.19812 7.37904 3.28258L6.55692 4.94838C6.34439 5.37902 5.93356 5.6775 5.45833 5.74656L3.62 6.01368C2.69787 6.14768 2.20255 7.05158 2.41993 7.84554C2.2919 8.32308 2.40006 8.86534 2.81136 9.26627L4.14158 10.5629C4.33509 10.7515 4.4694 10.9869 4.53539 11.2411L4.24719 12.9214C4.20964 13.1404 4.22119 13.3498 4.27172 13.5423L4.24719 13.6853C4.04275 14.8772 5.29381 15.7862 6.36423 15.2234L8.00848 14.359C8.43355 14.1355 8.94135 14.1355 9.36642 14.359L11.0107 15.2234C12.0811 15.7862 13.3321 14.8772 13.1277 13.6853L13.1032 13.5423C13.1537 13.3498 13.1653 13.1404 13.1277 12.9214L12.8395 11.2411C12.9055 10.9869 13.0398 10.7515 13.2333 10.5629L14.5635 9.26627C14.9748 8.86534 15.083 8.32308 14.955 7.84554C15.1723 7.05158 14.677 6.14768 13.7549 6.01368L11.9166 5.74656C11.4413 5.6775 11.0305 5.37902 10.818 4.94838L9.99586 3.28258Z" fill="url(#paint0_linear_137_2911)"/>
<path d="M7.37904 3.28258L6.72484 2.95971V2.95971L7.37904 3.28258ZM9.99586 3.28258L10.6501 2.95971V2.95971L9.99586 3.28258ZM6.55692 4.94838L7.21112 5.27125V5.27125L6.55692 4.94838ZM5.45833 5.74656L5.56323 6.46852H5.56323L5.45833 5.74656ZM3.62 6.01368L3.51509 5.29173H3.51509L3.62 6.01368ZM2.41993 7.84554L3.12458 8.03446L3.17577 7.84354L3.12357 7.65289L2.41993 7.84554ZM2.81136 9.26627L2.30213 9.78868H2.30213L2.81136 9.26627ZM4.14158 10.5629L3.63236 11.0853H3.63236L4.14158 10.5629ZM4.53539 11.2411L5.25443 11.3644L5.28097 11.2097L5.24151 11.0577L4.53539 11.2411ZM4.24719 12.9214L4.96623 13.0448L4.24719 12.9214ZM4.27172 13.5423L4.99076 13.6656L5.01747 13.5098L4.97735 13.357L4.27172 13.5423ZM4.24719 13.6853L3.52815 13.562H3.52815L4.24719 13.6853ZM6.36423 15.2234L6.02475 14.5777H6.02475L6.36423 15.2234ZM8.00848 14.359L8.34797 15.0047L8.34797 15.0047L8.00848 14.359ZM9.36642 14.359L9.02693 15.0047L9.36642 14.359ZM11.0107 15.2234L10.6712 15.8691L11.0107 15.2234ZM13.1277 13.6853L12.4087 13.8086L12.4087 13.8086L13.1277 13.6853ZM13.1032 13.5423L12.3976 13.357L12.3574 13.5098L12.3841 13.6656L13.1032 13.5423ZM13.1277 12.9214L13.8468 12.7981V12.7981L13.1277 12.9214ZM12.8395 11.2411L12.1334 11.0577L12.0939 11.2097L12.1205 11.3644L12.8395 11.2411ZM13.2333 10.5629L12.7241 10.0405V10.0405L13.2333 10.5629ZM14.5635 9.26627L15.0728 9.78868L14.5635 9.26627ZM14.955 7.84554L14.2513 7.65289L14.1991 7.84354L14.2503 8.03446L14.955 7.84554ZM13.7549 6.01368L13.65 6.73564L13.7549 6.01368ZM11.9166 5.74656L12.0215 5.0246L11.9166 5.74656ZM10.818 4.94838L10.1638 5.27125L10.1638 5.27125L10.818 4.94838ZM8.03325 3.60545C8.30085 3.06322 9.07405 3.06322 9.34165 3.60545L10.6501 2.95971C9.84725 1.33303 7.52765 1.33303 6.72484 2.95971L8.03325 3.60545ZM7.21112 5.27125L8.03325 3.60545L6.72484 2.95971L5.90272 4.62551L7.21112 5.27125ZM5.56323 6.46852C6.27609 6.36493 6.89232 5.91721 7.21112 5.27125L5.90272 4.62551C5.79645 4.84083 5.59104 4.99007 5.35342 5.0246L5.56323 6.46852ZM3.72491 6.73564L5.56323 6.46852L5.35342 5.0246L3.51509 5.29173L3.72491 6.73564ZM3.12357 7.65289C3.01223 7.24621 3.27232 6.8014 3.72491 6.73564L3.51509 5.29173C2.12342 5.49395 1.39288 6.85696 1.71629 8.03819L3.12357 7.65289ZM3.32059 8.74385C3.11335 8.54185 3.05931 8.27791 3.12458 8.03446L1.71528 7.65662C1.52449 8.36824 1.68676 9.18884 2.30213 9.78868L3.32059 8.74385ZM4.65081 10.0405L3.32059 8.74385L2.30213 9.78868L3.63236 11.0853L4.65081 10.0405ZM5.24151 11.0577C5.14256 10.6767 4.94108 10.3234 4.65081 10.0405L3.63236 11.0853C3.7291 11.1796 3.79623 11.2972 3.82927 11.4244L5.24151 11.0577ZM4.96623 13.0448L5.25443 11.3644L3.81635 11.1178L3.52815 12.7981L4.96623 13.0448ZM4.97735 13.357C4.95326 13.2652 4.94628 13.1611 4.96623 13.0448L3.52815 12.7981C3.47299 13.1197 3.48913 13.4343 3.56609 13.7275L4.97735 13.357ZM4.96623 13.8086L4.99076 13.6656L3.55268 13.4189L3.52815 13.562L4.96623 13.8086ZM6.02475 14.5777C5.48954 14.859 4.86401 14.4046 4.96623 13.8086L3.52815 13.562C3.2215 15.3499 5.09809 16.7133 6.70372 15.8691L6.02475 14.5777ZM7.669 13.7132L6.02475 14.5777L6.70372 15.8691L8.34797 15.0047L7.669 13.7132ZM9.7059 13.7132C9.06831 13.378 8.30659 13.378 7.669 13.7132L8.34797 15.0047C8.5605 14.893 8.8144 14.893 9.02693 15.0047L9.7059 13.7132ZM11.3502 14.5777L9.7059 13.7132L9.02693 15.0047L10.6712 15.8691L11.3502 14.5777ZM12.4087 13.8086C12.5109 14.4046 11.8854 14.8591 11.3502 14.5777L10.6712 15.8691C12.2768 16.7133 14.1534 15.3499 13.8468 13.562L12.4087 13.8086ZM12.3841 13.6656L12.4087 13.8086L13.8468 13.562L13.8222 13.4189L12.3841 13.6656ZM12.4087 13.0448C12.4286 13.1611 12.4216 13.2652 12.3976 13.357L13.8088 13.7275C13.8858 13.4343 13.9019 13.1197 13.8468 12.7981L12.4087 13.0448ZM12.1205 11.3644L12.4087 13.0448L13.8468 12.7981L13.5585 11.1178L12.1205 11.3644ZM12.7241 10.0405C12.4338 10.3234 12.2323 10.6767 12.1334 11.0577L13.5456 11.4244C13.5787 11.2972 13.6458 11.1796 13.7425 11.0853L12.7241 10.0405ZM14.0543 8.74385L12.7241 10.0405L13.7425 11.0853L15.0728 9.78868L14.0543 8.74385ZM14.2503 8.03446C14.3156 8.27791 14.2615 8.54185 14.0543 8.74385L15.0728 9.78868C15.6881 9.18884 15.8504 8.36824 15.6596 7.65661L14.2503 8.03446ZM13.65 6.73564C14.1026 6.8014 14.3627 7.2462 14.2513 7.65289L15.6586 8.03819C15.982 6.85696 15.2515 5.49395 13.8598 5.29173L13.65 6.73564ZM11.8117 6.46852L13.65 6.73564L13.8598 5.29173L12.0215 5.0246L11.8117 6.46852ZM10.1638 5.27125C10.4826 5.91721 11.0988 6.36493 11.8117 6.46852L12.0215 5.0246C11.7839 4.99007 11.5785 4.84083 11.4722 4.62551L10.1638 5.27125ZM9.34165 3.60545L10.1638 5.27125L11.4722 4.62552L10.6501 2.95971L9.34165 3.60545Z" fill="white" mask="url(#path-1-outside-1_137_2911)"/>
<g filter="url(#filter0_d_137_2911)">
<path d="M7.43177 3.29224C7.96698 2.20778 9.51337 2.20778 10.0486 3.29224L10.8707 4.95804C11.0832 5.38868 11.4941 5.68716 11.9693 5.75622L13.8076 6.02334C15.0044 6.19724 15.4823 7.66795 14.6163 8.51208L13.286 9.80873C12.9422 10.1439 12.7852 10.6269 12.8664 11.1002L13.1804 12.9311C13.3849 14.123 12.1338 15.032 11.0634 14.4692L9.41914 13.6048C8.99408 13.3813 8.48627 13.3813 8.06121 13.6048L6.41696 14.4692C5.34654 15.032 4.09548 14.123 4.29991 12.9311L4.61394 11.1002C4.69512 10.6269 4.53819 10.1439 4.19431 9.80873L2.86408 8.51208C1.9981 7.66795 2.47596 6.19724 3.67272 6.02334L5.51105 5.75622C5.98629 5.68716 6.39711 5.38868 6.60964 4.95804L7.43177 3.29224Z" fill="url(#paint1_linear_137_2911)"/>
</g>
<defs>
<filter id="filter0_d_137_2911" x="2.42188" y="2.479" width="12.6367" height="13.2554" filterUnits="userSpaceOnUse" color-interpolation-filters="sRGB">
<feFlood flood-opacity="0" result="BackgroundImageFix"/>
<feColorMatrix in="SourceAlpha" type="matrix" values="0 0 0 0 0 0 0 0 0 0 0 0 0 0 0 0 0 0 127 0" result="hardAlpha"/>
<feOffset dy="1.09431"/>
<feComposite in2="hardAlpha" operator="out"/>
<feColorMatrix type="matrix" values="0 0 0 0 1 0 0 0 0 0.392 0 0 0 0 0.2 0 0 0 1 0"/>
<feBlend mode="normal" in2="BackgroundImageFix" result="effect1_dropShadow_137_2911"/>
<feBlend mode="normal" in="SourceGraphic" in2="effect1_dropShadow_137_2911" result="shape"/>
</filter>
<linearGradient id="paint0_linear_137_2911" x1="8.68743" y1="1.27125" x2="8.68743" y2="16.9648" gradientUnits="userSpaceOnUse">
<stop offset="0.25" stop-color="#FFEE37"/>
<stop offset="1" stop-color="#F78A3B"/>
</linearGradient>
<linearGradient id="paint1_linear_137_2911" x1="8.74018" y1="0.641113" x2="8.74018" y2="17.4501" gradientUnits="userSpaceOnUse">
<stop offset="0.25" stop-color="#FFEE37"/>
<stop offset="1" stop-color="#F78A3B"/>
</linearGradient>
</defs>
</svg>
