<svg width="14" height="14" viewBox="0 0 14 14" fill="none" xmlns="http://www.w3.org/2000/svg">
<mask id="path-1-outside-1_137_2906" maskUnits="userSpaceOnUse" x="0.99292" y="0.94873" width="12" height="12" fill="black">
<rect fill="white" x="0.99292" y="0.94873" width="12" height="12"/>
<path fill-rule="evenodd" clip-rule="evenodd" d="M7.84801 2.57314C7.43713 1.74059 6.24995 1.74059 5.83906 2.57314L5.20791 3.85199C5.04475 4.18259 4.72935 4.41174 4.36451 4.46476L2.95321 4.66983C2.24526 4.7727 1.865 5.46669 2.03193 6.07624C1.93361 6.44286 2.01663 6.8592 2.33241 7.16702L3.35364 8.16246C3.50218 8.30726 3.60528 8.48795 3.65595 8.68304L3.43471 9.97297C3.40588 10.1411 3.41476 10.3018 3.45356 10.4496L3.43471 10.5595C3.27777 11.4746 4.23822 12.1724 5.05999 11.7404L6.32229 11.0767C6.64861 10.9052 7.03846 10.9052 7.36479 11.0767L8.62709 11.7404C9.44886 12.1724 10.4093 11.4746 10.2524 10.5595L10.2335 10.4496C10.2723 10.3018 10.2812 10.1411 10.2524 9.97297L10.0311 8.68304C10.0818 8.48795 10.1849 8.30726 10.3334 8.16246L11.3547 7.16702C11.6704 6.8592 11.7535 6.44286 11.6551 6.07624C11.8221 5.46669 11.4418 4.7727 10.7339 4.66983L9.32256 4.46476C8.95772 4.41174 8.64233 4.18259 8.47916 3.85199L7.84801 2.57314Z"/>
</mask>
<path fill-rule="evenodd" clip-rule="evenodd" d="M7.84801 2.57314C7.43713 1.74059 6.24995 1.74059 5.83906 2.57314L5.20791 3.85199C5.04475 4.18259 4.72935 4.41174 4.36451 4.46476L2.95321 4.66983C2.24526 4.7727 1.865 5.46669 2.03193 6.07624C1.93361 6.44286 2.01663 6.8592 2.33241 7.16702L3.35364 8.16246C3.50218 8.30726 3.60528 8.48795 3.65595 8.68304L3.43471 9.97297C3.40588 10.1411 3.41476 10.3018 3.45356 10.4496L3.43471 10.5595C3.27777 11.4746 4.23822 12.1724 5.05999 11.7404L6.32229 11.0767C6.64861 10.9052 7.03846 10.9052 7.36479 11.0767L8.62709 11.7404C9.44886 12.1724 10.4093 11.4746 10.2524 10.5595L10.2335 10.4496C10.2723 10.3018 10.2812 10.1411 10.2524 9.97297L10.0311 8.68304C10.0818 8.48795 10.1849 8.30726 10.3334 8.16246L11.3547 7.16702C11.6704 6.8592 11.7535 6.44286 11.6551 6.07624C11.8221 5.46669 11.4418 4.7727 10.7339 4.66983L9.32256 4.46476C8.95772 4.41174 8.64233 4.18259 8.47916 3.85199L7.84801 2.57314Z" fill="url(#paint0_linear_137_2906)"/>
<path d="M5.83906 2.57314L6.3413 2.82101V2.82101L5.83906 2.57314ZM7.84801 2.57314L7.34577 2.82101V2.82101L7.84801 2.57314ZM5.20791 3.85199L5.71015 4.09986L5.20791 3.85199ZM4.36451 4.46476L4.44505 5.01901L4.36451 4.46476ZM2.95321 4.66983L3.03375 5.22408H3.03375L2.95321 4.66983ZM2.03193 6.07624L2.57289 6.22131L2.61221 6.0747L2.57211 5.9283L2.03193 6.07624ZM2.33241 7.16702L1.94148 7.56808H1.94148L2.33241 7.16702ZM3.35364 8.16246L3.74458 7.7614H3.74458L3.35364 8.16246ZM3.65595 8.68304L4.20796 8.77772L4.22834 8.65891L4.19804 8.54224L3.65595 8.68304ZM3.43471 9.97297L2.8827 9.87829L3.43471 9.97297ZM3.45356 10.4496L4.00557 10.5443L4.02608 10.4247L3.99527 10.3074L3.45356 10.4496ZM3.43471 10.5595L3.98672 10.6542L3.43471 10.5595ZM5.05999 11.7404L5.32061 12.2361H5.32061L5.05999 11.7404ZM6.32229 11.0767L6.06166 10.581H6.06166L6.32229 11.0767ZM7.36479 11.0767L7.62541 10.581H7.62541L7.36479 11.0767ZM8.62709 11.7404L8.36646 12.2361H8.36646L8.62709 11.7404ZM10.2524 10.5595L10.8044 10.4649V10.4649L10.2524 10.5595ZM10.2335 10.4496L9.6918 10.3074L9.66099 10.4247L9.6815 10.5443L10.2335 10.4496ZM10.2524 9.97297L9.70035 10.0676H9.70035L10.2524 9.97297ZM10.0311 8.68304L9.48904 8.54224L9.45873 8.65891L9.47911 8.77772L10.0311 8.68304ZM10.3334 8.16246L9.9425 7.7614L9.9425 7.7614L10.3334 8.16246ZM11.3547 7.16702L10.9637 6.76596L11.3547 7.16702ZM11.6551 6.07624L11.115 5.9283L11.0749 6.0747L11.1142 6.22131L11.6551 6.07624ZM10.7339 4.66983L10.8144 4.11558L10.7339 4.66983ZM9.32256 4.46476L9.24203 5.01901L9.32256 4.46476ZM8.47916 3.85199L8.9814 3.60412V3.60412L8.47916 3.85199ZM6.3413 2.82101C6.54674 2.40474 7.14033 2.40474 7.34577 2.82101L8.35025 2.32527C7.73392 1.07645 5.95315 1.07645 5.33683 2.32527L6.3413 2.82101ZM5.71015 4.09986L6.3413 2.82101L5.33683 2.32527L4.70567 3.60412L5.71015 4.09986ZM4.44505 5.01901C4.99231 4.93949 5.4654 4.59576 5.71015 4.09986L4.70567 3.60412C4.62409 3.76942 4.4664 3.884 4.28397 3.9105L4.44505 5.01901ZM3.03375 5.22408L4.44505 5.01901L4.28397 3.9105L2.87268 4.11558L3.03375 5.22408ZM2.57211 5.9283C2.48661 5.61608 2.68629 5.27457 3.03375 5.22408L2.87268 4.11558C1.80423 4.27083 1.24339 5.31731 1.49175 6.22418L2.57211 5.9283ZM2.72335 6.76596C2.56425 6.61087 2.52276 6.40822 2.57289 6.22131L1.49098 5.93116C1.34445 6.47751 1.46902 7.10754 1.94148 7.56808L2.72335 6.76596ZM3.74458 7.7614L2.72335 6.76596L1.94148 7.56808L2.9627 8.56352L3.74458 7.7614ZM4.19804 8.54224C4.12206 8.24973 3.9674 7.9786 3.74458 7.7614L2.9627 8.56352C3.03696 8.63591 3.0885 8.72618 3.11387 8.82384L4.19804 8.54224ZM3.98672 10.0676L4.20796 8.77772L3.10394 8.58836L2.8827 9.87829L3.98672 10.0676ZM3.99527 10.3074C3.97677 10.2369 3.97141 10.1569 3.98672 10.0676L2.8827 9.87829C2.84035 10.1252 2.85275 10.3668 2.91185 10.5919L3.99527 10.3074ZM3.98672 10.6542L4.00557 10.5443L2.90155 10.355L2.8827 10.4649L3.98672 10.6542ZM4.79936 11.2446C4.38848 11.4606 3.90825 11.1117 3.98672 10.6542L2.8827 10.4649C2.64728 11.8374 4.08796 12.8841 5.32061 12.2361L4.79936 11.2446ZM6.06166 10.581L4.79936 11.2446L5.32061 12.2361L6.58291 11.5725L6.06166 10.581ZM7.62541 10.581C7.13592 10.3237 6.55115 10.3237 6.06166 10.581L6.58291 11.5725C6.74607 11.4867 6.941 11.4867 7.10416 11.5725L7.62541 10.581ZM8.88771 11.2446L7.62541 10.581L7.10416 11.5725L8.36646 12.2361L8.88771 11.2446ZM9.70035 10.6542C9.77882 11.1117 9.2986 11.4606 8.88771 11.2446L8.36646 12.2361C9.59912 12.8841 11.0398 11.8374 10.8044 10.4649L9.70035 10.6542ZM9.6815 10.5443L9.70035 10.6542L10.8044 10.4649L10.7855 10.355L9.6815 10.5443ZM9.70035 10.0676C9.71567 10.1569 9.71031 10.2369 9.6918 10.3074L10.7752 10.5919C10.8343 10.3668 10.8467 10.1252 10.8044 9.87829L9.70035 10.0676ZM9.47911 8.77772L9.70035 10.0676L10.8044 9.87829L10.5831 8.58836L9.47911 8.77772ZM9.9425 7.7614C9.71968 7.9786 9.56501 8.24973 9.48904 8.54224L10.5732 8.82384C10.5986 8.72618 10.6501 8.63591 10.7244 8.56352L9.9425 7.7614ZM10.9637 6.76596L9.9425 7.7614L10.7244 8.56352L11.7456 7.56808L10.9637 6.76596ZM11.1142 6.22131C11.1643 6.40822 11.1228 6.61087 10.9637 6.76596L11.7456 7.56808C12.2181 7.10754 12.3426 6.47751 12.1961 5.93116L11.1142 6.22131ZM10.6533 5.22408C11.0008 5.27457 11.2005 5.61608 11.115 5.9283L12.1953 6.22417C12.4437 5.31731 11.8828 4.27083 10.8144 4.11558L10.6533 5.22408ZM9.24203 5.01901L10.6533 5.22408L10.8144 4.11558L9.4031 3.9105L9.24203 5.01901ZM7.97693 4.09986C8.22167 4.59577 8.69476 4.93949 9.24203 5.01901L9.4031 3.9105C9.22068 3.884 9.06298 3.76942 8.9814 3.60412L7.97693 4.09986ZM7.34577 2.82101L7.97693 4.09986L8.9814 3.60412L8.35025 2.32527L7.34577 2.82101Z" fill="white" mask="url(#path-1-outside-1_137_2906)"/>
<g filter="url(#filter0_d_137_2906)">
<path d="M5.87887 2.5807C6.28975 1.74815 7.47693 1.74816 7.88782 2.5807L8.51897 3.85955C8.68213 4.19015 8.99752 4.4193 9.36237 4.47232L10.7737 4.67739C11.6924 4.81089 12.0593 5.93997 11.3945 6.58801L10.3732 7.58346C10.1092 7.8408 9.98877 8.21157 10.0511 8.57494L10.2922 9.98053C10.4491 10.8956 9.48866 11.5934 8.66689 11.1614L7.40459 10.4977C7.07827 10.3262 6.68842 10.3262 6.36209 10.4977L5.09979 11.1614C4.27802 11.5934 3.31757 10.8956 3.47452 9.98053L3.71559 8.57494C3.77792 8.21157 3.65745 7.8408 3.39344 7.58346L2.37222 6.58801C1.70739 5.93997 2.07425 4.81089 2.99302 4.67739L4.40432 4.47232C4.76916 4.4193 5.08455 4.19015 5.24772 3.85955L5.87887 2.5807Z" fill="url(#paint1_linear_137_2906)"/>
</g>
<defs>
<filter id="filter0_d_137_2906" x="2.03271" y="1.95605" width="9.70117" height="10.1765" filterUnits="userSpaceOnUse" color-interpolation-filters="sRGB">
<feFlood flood-opacity="0" result="BackgroundImageFix"/>
<feColorMatrix in="SourceAlpha" type="matrix" values="0 0 0 0 0 0 0 0 0 0 0 0 0 0 0 0 0 0 127 0" result="hardAlpha"/>
<feOffset dy="0.840109"/>
<feComposite in2="hardAlpha" operator="out"/>
<feColorMatrix type="matrix" values="0 0 0 0 1 0 0 0 0 0.392 0 0 0 0 0.2 0 0 0 1 0"/>
<feBlend mode="normal" in2="BackgroundImageFix" result="effect1_dropShadow_137_2906"/>
<feBlend mode="normal" in="SourceGraphic" in2="effect1_dropShadow_137_2906" result="shape"/>
</filter>
<linearGradient id="paint0_linear_137_2906" x1="6.84352" y1="1.029" x2="6.84352" y2="13.0774" gradientUnits="userSpaceOnUse">
<stop offset="0.25" stop-color="#FFEE37"/>
<stop offset="1" stop-color="#F78A3B"/>
</linearGradient>
<linearGradient id="paint1_linear_137_2906" x1="6.88334" y1="0.54541" x2="6.88334" y2="13.4498" gradientUnits="userSpaceOnUse">
<stop offset="0.25" stop-color="#FFEE37"/>
<stop offset="1" stop-color="#F78A3B"/>
</linearGradient>
</defs>
</svg>
