<svg width="21" height="21" viewBox="0 0 21 21" fill="none" xmlns="http://www.w3.org/2000/svg">
<mask id="path-1-outside-1_137_2916" maskUnits="userSpaceOnUse" x="1.24976" y="1.10547" width="18" height="18" fill="black">
<rect fill="white" x="1.24976" y="1.10547" width="18" height="18"/>
<path fill-rule="evenodd" clip-rule="evenodd" d="M11.4751 2.91881C10.9399 1.83436 9.3935 1.83435 8.85829 2.91881L7.54216 5.58557C7.32963 6.01621 6.9188 6.31469 6.44357 6.38375L3.50062 6.81138C2.54909 6.94965 2.05202 7.90769 2.32351 8.7188C2.16165 9.21424 2.25831 9.79409 2.69197 10.2168L4.82151 12.2926C5.00025 12.4668 5.12849 12.681 5.19903 12.9129L4.73842 15.5984C4.69711 15.8393 4.71524 16.0687 4.77933 16.2767L4.73842 16.5151C4.53399 17.7071 5.78505 18.616 6.85547 18.0533L9.48773 16.6694C9.91279 16.4459 10.4206 16.4459 10.8457 16.6694L13.4779 18.0533C14.5483 18.616 15.7994 17.7071 15.595 16.5151L15.5541 16.2767C15.6181 16.0687 15.6363 15.8393 15.595 15.5984L15.1344 12.9129C15.2049 12.681 15.3331 12.4668 15.5119 12.2926L17.6414 10.2168C18.0751 9.79409 18.1717 9.21424 18.0099 8.7188C18.2814 7.90769 17.7843 6.94965 16.8328 6.81139L13.8898 6.38375C13.4146 6.31469 13.0038 6.01621 12.7912 5.58557L11.4751 2.91881Z"/>
</mask>
<path fill-rule="evenodd" clip-rule="evenodd" d="M11.4751 2.91881C10.9399 1.83436 9.3935 1.83435 8.85829 2.91881L7.54216 5.58557C7.32963 6.01621 6.9188 6.31469 6.44357 6.38375L3.50062 6.81138C2.54909 6.94965 2.05202 7.90769 2.32351 8.7188C2.16165 9.21424 2.25831 9.79409 2.69197 10.2168L4.82151 12.2926C5.00025 12.4668 5.12849 12.681 5.19903 12.9129L4.73842 15.5984C4.69711 15.8393 4.71524 16.0687 4.77933 16.2767L4.73842 16.5151C4.53399 17.7071 5.78505 18.616 6.85547 18.0533L9.48773 16.6694C9.91279 16.4459 10.4206 16.4459 10.8457 16.6694L13.4779 18.0533C14.5483 18.616 15.7994 17.7071 15.595 16.5151L15.5541 16.2767C15.6181 16.0687 15.6363 15.8393 15.595 15.5984L15.1344 12.9129C15.2049 12.681 15.3331 12.4668 15.5119 12.2926L17.6414 10.2168C18.0751 9.79409 18.1717 9.21424 18.0099 8.7188C18.2814 7.90769 17.7843 6.94965 16.8328 6.81139L13.8898 6.38375C13.4146 6.31469 13.0038 6.01621 12.7912 5.58557L11.4751 2.91881Z" fill="url(#paint0_linear_137_2916)"/>
<path d="M8.85829 2.91881L8.20408 2.59594V2.59594L8.85829 2.91881ZM11.4751 2.91881L12.1293 2.59594L11.4751 2.91881ZM7.54216 5.58557L6.88796 5.26271L7.54216 5.58557ZM6.44357 6.38375L6.33866 5.66179L6.33866 5.66179L6.44357 6.38375ZM3.50062 6.81138L3.60552 7.53334L3.50062 6.81138ZM2.32351 8.7188L3.01698 8.94536L3.09191 8.71603L3.01533 8.48724L2.32351 8.7188ZM2.69197 10.2168L2.18275 10.7392H2.18275L2.69197 10.2168ZM4.82151 12.2926L4.31229 12.815L4.31229 12.815L4.82151 12.2926ZM5.19903 12.9129L5.91806 13.0363L5.94727 12.866L5.897 12.7007L5.19903 12.9129ZM4.73842 15.5984L4.01938 15.4751V15.4751L4.73842 15.5984ZM4.77933 16.2767L5.49837 16.4L5.52781 16.2283L5.47652 16.0618L4.77933 16.2767ZM4.73842 16.5151L5.45746 16.6385L4.73842 16.5151ZM6.85547 18.0533L6.51599 17.4075H6.51599L6.85547 18.0533ZM9.48773 16.6694L9.82721 17.3151L9.82721 17.3151L9.48773 16.6694ZM10.8457 16.6694L10.5062 17.3151V17.3151L10.8457 16.6694ZM13.4779 18.0533L13.1384 18.699L13.4779 18.0533ZM15.595 16.5151L14.8759 16.6385L14.8759 16.6385L15.595 16.5151ZM15.5541 16.2767L14.8569 16.0618L14.8056 16.2283L14.835 16.4L15.5541 16.2767ZM15.595 15.5984L14.8759 15.7218V15.7218L15.595 15.5984ZM15.1344 12.9129L14.4364 12.7007L14.3861 12.866L14.4153 13.0363L15.1344 12.9129ZM15.5119 12.2926L16.0211 12.815H16.0211L15.5119 12.2926ZM17.6414 10.2168L17.1322 9.6944L17.6414 10.2168ZM18.0099 8.7188L17.3181 8.48724L17.2415 8.71603L17.3164 8.94537L18.0099 8.7188ZM16.8328 6.81139L16.9377 6.08943H16.9377L16.8328 6.81139ZM13.8898 6.38375L13.9947 5.66179V5.66179L13.8898 6.38375ZM12.7912 5.58557L13.4454 5.26271L12.7912 5.58557ZM9.51249 3.24168C9.7801 2.69945 10.5533 2.69945 10.8209 3.24168L12.1293 2.59594C11.3265 0.969263 9.0069 0.969258 8.20408 2.59594L9.51249 3.24168ZM8.19636 5.90844L9.51249 3.24168L8.20408 2.59594L6.88796 5.26271L8.19636 5.90844ZM6.54847 7.10571C7.26133 7.00212 7.87757 6.5544 8.19636 5.90844L6.88796 5.26271C6.78169 5.47802 6.57628 5.62726 6.33866 5.66179L6.54847 7.10571ZM3.60552 7.53334L6.54847 7.10571L6.33866 5.66179L3.39571 6.08943L3.60552 7.53334ZM3.01533 8.48724C2.87703 8.07405 3.13827 7.60124 3.60552 7.53334L3.39571 6.08943C1.95992 6.29806 1.22702 7.74133 1.6317 8.95036L3.01533 8.48724ZM3.2012 9.6944C2.98362 9.48231 2.93389 9.19967 3.01698 8.94536L1.63005 8.49223C1.3894 9.2288 1.53299 10.1059 2.18275 10.7392L3.2012 9.6944ZM5.33074 11.7702L3.2012 9.6944L2.18275 10.7392L4.31229 12.815L5.33074 11.7702ZM5.897 12.7007C5.79123 12.3528 5.59885 12.0315 5.33074 11.7702L4.31229 12.815C4.40166 12.9021 4.46574 13.0091 4.50105 13.1252L5.897 12.7007ZM5.45746 15.7218L5.91806 13.0363L4.47999 12.7896L4.01938 15.4751L5.45746 15.7218ZM5.47652 16.0618C5.44603 15.9629 5.43558 15.8494 5.45746 15.7218L4.01938 15.4751C3.95863 15.8293 3.98446 16.1745 4.08214 16.4915L5.47652 16.0618ZM5.45746 16.6385L5.49837 16.4L4.06029 16.1533L4.01938 16.3918L5.45746 16.6385ZM6.51599 17.4075C5.98078 17.6889 5.35525 17.2344 5.45746 16.6385L4.01938 16.3918C3.71274 18.1797 5.58932 19.5431 7.19496 18.699L6.51599 17.4075ZM9.14824 16.0237L6.51599 17.4075L7.19495 18.699L9.82721 17.3151L9.14824 16.0237ZM11.1851 16.0237C10.5476 15.6885 9.78584 15.6885 9.14824 16.0237L9.82721 17.3151C10.0397 17.2034 10.2936 17.2034 10.5062 17.3151L11.1851 16.0237ZM13.8174 17.4075L11.1851 16.0237L10.5062 17.3151L13.1384 18.699L13.8174 17.4075ZM14.8759 16.6385C14.9781 17.2344 14.3526 17.6889 13.8174 17.4075L13.1384 18.699C14.7441 19.5431 16.6207 18.1797 16.314 16.3918L14.8759 16.6385ZM14.835 16.4L14.8759 16.6385L16.314 16.3918L16.2731 16.1533L14.835 16.4ZM14.8759 15.7218C14.8978 15.8494 14.8874 15.9629 14.8569 16.0618L16.2513 16.4915C16.3489 16.1745 16.3748 15.8293 16.314 15.4751L14.8759 15.7218ZM14.4153 13.0363L14.8759 15.7218L16.314 15.4751L15.8534 12.7896L14.4153 13.0363ZM15.0026 11.7702C14.7345 12.0315 14.5422 12.3528 14.4364 12.7007L15.8323 13.1252C15.8676 13.0091 15.9317 12.9021 16.0211 12.815L15.0026 11.7702ZM17.1322 9.6944L15.0026 11.7702L16.0211 12.815L18.1506 10.7392L17.1322 9.6944ZM17.3164 8.94537C17.3995 9.19968 17.3498 9.48231 17.1322 9.6944L18.1506 10.7392C18.8004 10.1059 18.944 9.2288 18.7033 8.49224L17.3164 8.94537ZM16.7279 7.53334C17.1951 7.60124 17.4564 8.07405 17.3181 8.48724L18.7017 8.95036C19.1064 7.74134 18.3735 6.29806 16.9377 6.08943L16.7279 7.53334ZM13.7849 7.10571L16.7279 7.53334L16.9377 6.08943L13.9947 5.66179L13.7849 7.10571ZM12.137 5.90844C12.4558 6.5544 13.0721 7.00212 13.7849 7.10571L13.9947 5.66179C13.7571 5.62726 13.5517 5.47802 13.4454 5.26271L12.137 5.90844ZM10.8209 3.24168L12.137 5.90844L13.4454 5.26271L12.1293 2.59594L10.8209 3.24168Z" fill="white" mask="url(#path-1-outside-1_137_2916)"/>
<g filter="url(#filter0_d_137_2916)">
<path d="M8.9215 2.93042C9.45671 1.84597 11.0031 1.84597 11.5383 2.93042L12.8544 5.59719C13.067 6.02782 13.4778 6.3263 13.953 6.39536L16.896 6.823C18.0928 6.9969 18.5706 8.4676 17.7046 9.31173L15.5751 11.3875C15.2312 11.7227 15.0743 12.2057 15.1555 12.679L15.6582 15.6101C15.8626 16.802 14.6116 17.7109 13.5411 17.1482L10.9089 15.7643C10.4838 15.5409 9.97601 15.5409 9.55094 15.7643L6.91869 17.1482C5.84827 17.7109 4.59721 16.802 4.80164 15.6101L5.30436 12.679C5.38554 12.2057 5.22861 11.7227 4.88473 11.3875L2.75519 9.31173C1.8892 8.4676 2.36707 6.9969 3.56383 6.823L6.50678 6.39536C6.98202 6.3263 7.39284 6.02782 7.60538 5.59718L8.9215 2.93042Z" fill="url(#paint1_linear_137_2916)"/>
</g>
<defs>
<filter id="filter0_d_137_2916" x="2.31299" y="2.11719" width="15.8337" height="16.296" filterUnits="userSpaceOnUse" color-interpolation-filters="sRGB">
<feFlood flood-opacity="0" result="BackgroundImageFix"/>
<feColorMatrix in="SourceAlpha" type="matrix" values="0 0 0 0 0 0 0 0 0 0 0 0 0 0 0 0 0 0 127 0" result="hardAlpha"/>
<feOffset dy="1.09431"/>
<feComposite in2="hardAlpha" operator="out"/>
<feColorMatrix type="matrix" values="0 0 0 0 1 0 0 0 0 0.392 0 0 0 0 0.2 0 0 0 1 0"/>
<feBlend mode="normal" in2="BackgroundImageFix" result="effect1_dropShadow_137_2916"/>
<feBlend mode="normal" in="SourceGraphic" in2="effect1_dropShadow_137_2916" result="shape"/>
</filter>
<linearGradient id="paint0_linear_137_2916" x1="10.1667" y1="0.611438" x2="10.1667" y2="20.1831" gradientUnits="userSpaceOnUse">
<stop offset="0.25" stop-color="#FFEE37"/>
<stop offset="1" stop-color="#F78A3B"/>
</linearGradient>
<linearGradient id="paint1_linear_137_2916" x1="10.2299" y1="0.279297" x2="10.2299" y2="20.4501" gradientUnits="userSpaceOnUse">
<stop offset="0.25" stop-color="#FFEE37"/>
<stop offset="1" stop-color="#F78A3B"/>
</linearGradient>
</defs>
</svg>
