<svg width="46" height="46" viewBox="0 0 46 46" fill="none" xmlns="http://www.w3.org/2000/svg">
<path fill-rule="evenodd" clip-rule="evenodd" d="M23 4.6C18.12 4.6 13.4399 6.53857 9.98923 9.98923C6.53857 13.4399 4.6 18.12 4.6 23C4.6 25.4163 5.07593 27.809 6.00062 30.0414C6.9253 32.2738 8.28064 34.3022 9.98923 36.0108C11.6978 37.7194 13.7262 39.0747 15.9586 39.9994C18.191 40.9241 20.5837 41.4 23 41.4C25.4163 41.4 27.809 40.9241 30.0414 39.9994C32.2738 39.0747 34.3022 37.7194 36.0108 36.0108C37.7194 34.3022 39.0747 32.2738 39.9994 30.0414C40.9241 27.809 41.4 25.4163 41.4 23C41.4 18.12 39.4614 13.4399 36.0108 9.98923C32.5601 6.53857 27.88 4.6 23 4.6ZM6.73654 6.73654C11.0499 2.42321 16.9 0 23 0C29.1 0 34.9501 2.42321 39.2635 6.73654C43.5768 11.0499 46 16.9 46 23C46 26.0204 45.4051 29.0112 44.2492 31.8017C43.0934 34.5922 41.3992 37.1277 39.2635 39.2635C37.1277 41.3992 34.5922 43.0934 31.8017 44.2492C29.0112 45.4051 26.0204 46 23 46C19.9796 46 16.9888 45.4051 14.1983 44.2492C11.4078 43.0934 8.87229 41.3992 6.73654 39.2635C4.6008 37.1277 2.90663 34.5922 1.75077 31.8017C0.594912 29.0112 0 26.0204 0 23C0 16.9 2.42321 11.0499 6.73654 6.73654ZM23 11.5C24.2703 11.5 25.3 12.5297 25.3 13.8V23C25.3 24.2703 24.2703 25.3 23 25.3C21.7297 25.3 20.7 24.2703 20.7 23V13.8C20.7 12.5297 21.7297 11.5 23 11.5ZM20.7 32.2C20.7 30.9297 21.7297 29.9 23 29.9H23.023C24.2933 29.9 25.323 30.9297 25.323 32.2C25.323 33.4703 24.2933 34.5 23.023 34.5H23C21.7297 34.5 20.7 33.4703 20.7 32.2Z" fill="#FFDB0A"/>
</svg>
