<svg width="30" height="29" viewBox="0 0 30 29" fill="none" xmlns="http://www.w3.org/2000/svg">
<g filter="url(#filter0_d_197_462)">
<path d="M23.7776 9.04932H6.9724C6.25845 9.04932 5.67969 9.62808 5.67969 10.342V23.2691C5.67969 23.9831 6.25845 24.5618 6.9724 24.5618H23.7776C24.4916 24.5618 25.0704 23.9831 25.0704 23.2691V10.342C25.0704 9.62808 24.4916 9.04932 23.7776 9.04932Z" stroke="#FFDB0A" stroke-width="1.29271"/>
<path d="M10.8508 15.5127C11.5648 15.5127 12.1435 14.9339 12.1435 14.22C12.1435 13.506 11.5648 12.9272 10.8508 12.9272C10.1369 12.9272 9.55811 13.506 9.55811 14.22C9.55811 14.9339 10.1369 15.5127 10.8508 15.5127Z" fill="#FFDB0A"/>
<path d="M19.8992 15.5127C20.6131 15.5127 21.1919 14.9339 21.1919 14.22C21.1919 13.506 20.6131 12.9272 19.8992 12.9272C19.1852 12.9272 18.6064 13.506 18.6064 14.22C18.6064 14.9339 19.1852 15.5127 19.8992 15.5127Z" fill="#FFDB0A"/>
<path d="M12.7893 18.0981C12.4464 18.0981 12.1176 18.2343 11.8752 18.4768C11.6328 18.7192 11.4966 19.048 11.4966 19.3909C11.4966 19.7337 11.6328 20.0625 11.8752 20.3049C12.1176 20.5474 12.4464 20.6836 12.7893 20.6836V18.0981ZM17.9601 20.6836C18.303 20.6836 18.6318 20.5474 18.8742 20.3049C19.1167 20.0625 19.2528 19.7337 19.2528 19.3909C19.2528 19.048 19.1167 18.7192 18.8742 18.4768C18.6318 18.2343 18.303 18.0981 17.9601 18.0981V20.6836ZM12.7893 20.6836H17.9601V18.0981H12.7893V20.6836Z" fill="#FFDB0A"/>
<path d="M15.3749 3.87842V9.04926M2.44775 14.2201V19.391M28.302 14.2201V19.391" stroke="#FFDB0A" stroke-width="1.29271" stroke-linecap="round" stroke-linejoin="round"/>
<path d="M15.3747 3.87839C16.0887 3.87839 16.6675 3.29962 16.6675 2.58568C16.6675 1.87174 16.0887 1.29297 15.3747 1.29297C14.6608 1.29297 14.082 1.87174 14.082 2.58568C14.082 3.29962 14.6608 3.87839 15.3747 3.87839Z" fill="#FFDB0A" stroke="#FFDB0A" stroke-width="1.29271"/>
</g>
<defs>
<filter id="filter0_d_197_462" x="1.80127" y="0.646484" width="27.147" height="26.8145" filterUnits="userSpaceOnUse" color-interpolation-filters="sRGB">
<feFlood flood-opacity="0" result="BackgroundImageFix"/>
<feColorMatrix in="SourceAlpha" type="matrix" values="0 0 0 0 0 0 0 0 0 0 0 0 0 0 0 0 0 0 127 0" result="hardAlpha"/>
<feOffset dy="2.25301"/>
<feComposite in2="hardAlpha" operator="out"/>
<feColorMatrix type="matrix" values="0 0 0 0 0 0 0 0 0 0 0 0 0 0 0 0 0 0 0.15 0"/>
<feBlend mode="normal" in2="BackgroundImageFix" result="effect1_dropShadow_197_462"/>
<feBlend mode="normal" in="SourceGraphic" in2="effect1_dropShadow_197_462" result="shape"/>
</filter>
</defs>
</svg>
